<svg xmlns="http://www.w3.org/2000/svg" viewBox="0 0 880 500" font-family="Inter, system-ui, sans-serif">
  <rect width="880" height="500" fill="#F9FAFB"/>
  <text x="32" y="35" font-size="15" font-weight="600" fill="#2E90FA">✦ Social Media Metrics</text>

  <!-- Social Cards -->
  <rect x="32" y="52" width="200" height="80" rx="10" fill="white" stroke="#E4E7EC" stroke-width="1"/>
  <text x="52" y="72" font-size="12" fill="#667085">📸 Instagram</text>
  <text x="192" y="72" font-size="10" fill="#12B76A" text-anchor="end">↗ 8.7%</text>
  <text x="52" y="96" font-size="10" fill="#98A2B3">Followers</text><text x="122" y="96" font-size="10" fill="#98A2B3">Engagement</text>
  <text x="52" y="114" font-size="14" font-weight="600" fill="#101828">13.6K</text><text x="122" y="114" font-size="14" font-weight="600" fill="#101828">5.2%</text>

  <rect x="242" y="52" width="200" height="80" rx="10" fill="white" stroke="#E4E7EC" stroke-width="1"/>
  <text x="262" y="72" font-size="12" fill="#667085">💼 LinkedIn</text>
  <text x="262" y="96" font-size="10" fill="#98A2B3">Followers</text><text x="332" y="96" font-size="10" fill="#98A2B3">Engagement</text>
  <text x="262" y="114" font-size="14" font-weight="600" fill="#101828">45.2K</text><text x="332" y="114" font-size="14" font-weight="600" fill="#101828">3.8%</text>

  <rect x="452" y="52" width="200" height="80" rx="10" fill="white" stroke="#E4E7EC" stroke-width="1"/>
  <text x="472" y="72" font-size="12" fill="#667085">🐦 Twitter</text>
  <text x="612" y="72" font-size="10" fill="#F04438" text-anchor="end">↘ 2.3%</text>
  <text x="472" y="96" font-size="10" fill="#98A2B3">Followers</text><text x="542" y="96" font-size="10" fill="#98A2B3">Engagement</text>
  <text x="472" y="114" font-size="14" font-weight="600" fill="#101828">99.5K</text><text x="542" y="114" font-size="14" font-weight="600" fill="#101828">2.1%</text>

  <!-- Aggregate Stats -->
  
  <rect x="32" y="148" width="150" height="56" rx="10" fill="white" stroke="#E4E7EC" stroke-width="1"/>
  <text x="107" y="172" font-size="16" font-weight="700" fill="#101828" text-anchor="middle">👁 2.4M</text>
  <text x="107" y="192" font-size="10" fill="#667085" text-anchor="middle">Total Reach</text>
  <rect x="197" y="148" width="150" height="56" rx="10" fill="white" stroke="#E4E7EC" stroke-width="1"/>
  <text x="272" y="172" font-size="16" font-weight="700" fill="#101828" text-anchor="middle">💬 $6.5K</text>
  <text x="272" y="192" font-size="10" fill="#667085" text-anchor="middle">Ad Spend</text>
  <rect x="362" y="148" width="150" height="56" rx="10" fill="white" stroke="#E4E7EC" stroke-width="1"/>
  <text x="437" y="172" font-size="16" font-weight="700" fill="#101828" text-anchor="middle">📊 12.3K</text>
  <text x="437" y="192" font-size="10" fill="#667085" text-anchor="middle">Total Clicks</text>
  <rect x="527" y="148" width="150" height="56" rx="10" fill="white" stroke="#E4E7EC" stroke-width="1"/>
  <text x="602" y="172" font-size="16" font-weight="700" fill="#101828" text-anchor="middle">👤 8.7K</text>
  <text x="602" y="192" font-size="10" fill="#667085" text-anchor="middle">New Followers</text>

  <!-- R&D Section -->
  <text x="32" y="240" font-size="15" font-weight="600" fill="#2E90FA">Research &amp; Development</text>
  <text x="32" y="258" font-size="12" fill="#667085">Components for tracking milestones and product roadmaps</text>

  <!-- Product Milestones -->
  <rect x="32" y="272" width="620" height="36" rx="8" fill="white" stroke="#E4E7EC" stroke-width="1"/>
  <text x="52" y="295" font-size="13" font-weight="600" fill="#101828">Product Development Q2 2024</text>
  <text x="580" y="295" font-size="24" font-weight="700" fill="#2E90FA" text-anchor="end">67%</text>

  <!-- Steps -->
  
  <rect x="52" y="316" width="580" height="30" rx="6" fill="#ECFDF3"/>
  <text x="72" y="336" font-size="12" font-weight="500" fill="#344054">Requirements Gathering</text>
  <rect x="530" y="320" width="56" height="22" rx="11" fill="#ECFDF3" stroke="#027A48" stroke-width="1"/>
  <text x="558" y="335" font-size="10" fill="#027A48" text-anchor="middle">Completed</text>
  <rect x="400" y="324" width="80" height="12" rx="4" fill="#027A48" opacity="0.3"/>
  
  <rect x="52" y="350" width="580" height="30" rx="6" fill="#ECFDF3"/>
  <text x="72" y="370" font-size="12" font-weight="500" fill="#344054">Prototype Design</text>
  <rect x="530" y="354" width="56" height="22" rx="11" fill="#ECFDF3" stroke="#027A48" stroke-width="1"/>
  <text x="558" y="369" font-size="10" fill="#027A48" text-anchor="middle">Completed</text>
  <rect x="400" y="358" width="72" height="12" rx="4" fill="#027A48" opacity="0.3"/>
  
  <rect x="52" y="384" width="580" height="30" rx="6" fill="#EFF8FF"/>
  <text x="72" y="404" font-size="12" font-weight="500" fill="#344054">Technical Implementation</text>
  <rect x="530" y="388" width="56" height="22" rx="11" fill="#EFF8FF" stroke="#175CD3" stroke-width="1"/>
  <text x="558" y="403" font-size="10" fill="#175CD3" text-anchor="middle">In Progress</text>
  <rect x="400" y="392" width="52" height="12" rx="4" fill="#175CD3" opacity="0.3"/>
  
  <rect x="52" y="418" width="580" height="30" rx="6" fill="#F2F4F7"/>
  <text x="72" y="438" font-size="12" font-weight="500" fill="#344054">User Testing Phase</text>
  <rect x="530" y="422" width="56" height="22" rx="11" fill="#F2F4F7" stroke="#667085" stroke-width="1"/>
  <text x="558" y="437" font-size="10" fill="#667085" text-anchor="middle">Pending</text>
  
  
  <rect x="52" y="452" width="580" height="30" rx="6" fill="#FEF3F2"/>
  <text x="72" y="472" font-size="12" font-weight="500" fill="#344054">Beta Launch</text>
  <rect x="530" y="456" width="56" height="22" rx="11" fill="#FEF3F2" stroke="#B42318" stroke-width="1"/>
  <text x="558" y="471" font-size="10" fill="#B42318" text-anchor="middle">At Risk</text>
  
  
</svg>