<svg xmlns="http://www.w3.org/2000/svg" viewBox="0 0 880 520" font-family="Inter, system-ui, sans-serif">
  <rect width="880" height="520" fill="#101323"/>
  <!-- Sidebar -->
  <rect x="0" y="0" width="170" height="520" fill="#1D2939"/>
  <rect x="16" y="16" width="138" height="36" rx="8" fill="#2E90FA"/>
  <text x="85" y="39" font-size="13" font-weight="600" fill="white" text-anchor="middle">+ New Chat</text>
  <text x="16" y="76" font-size="11" fill="#667085">Recent Chats</text>
  
  <text x="32" y="104" font-size="12" fill="#D0D5DD">Product launch str...</text>
  <text x="32" y="118" font-size="10" fill="#667085">2 hours ago</text>
  <text x="32" y="140" font-size="12" fill="#D0D5DD">Code review feedb...</text>
  <text x="32" y="154" font-size="10" fill="#667085">Yesterday</text>
  <text x="32" y="176" font-size="12" fill="#D0D5DD">Market research a...</text>
  <text x="32" y="190" font-size="10" fill="#667085">2 days ago</text>
  <text x="32" y="212" font-size="12" fill="#D0D5DD">Design system upd...</text>
  <text x="32" y="226" font-size="10" fill="#667085">3 days ago</text>
  <text x="32" y="248" font-size="12" fill="#D0D5DD">Team meeting not...</text>
  <text x="32" y="262" font-size="10" fill="#667085">1 week ago</text>

  <!-- Top Nav -->
  <rect x="170" y="0" width="710" height="48" fill="#1D2939"/>
  <text x="190" y="30" font-size="16" font-weight="700" fill="#F9FAFB">AI Analytics Assistant</text>
  <rect x="360" y="10" width="180" height="28" rx="6" fill="#293056"/>
  <text x="380" y="29" font-size="12" fill="#667085">🔍 Search...</text>

  <!-- Messages area -->
  <text x="224" y="80" font-size="11" font-weight="600" fill="#F9FAFB">AI Assistant</text>
  <text x="224" y="98" font-size="12" fill="#D0D5DD">Hello! I can help with data analysis, coding, research, and more.</text>
  <text x="740" y="130" font-size="12" fill="#D0D5DD" text-anchor="end">Can you show me analytics about user engagement?</text>
  <text x="224" y="170" font-size="11" font-weight="600" fill="#F9FAFB">AI Assistant</text>
  <text x="224" y="188" font-size="12" fill="#D0D5DD">I've analyzed your engagement data. Positive trend this week.</text>

  <!-- Generated Analytics -->
  <text x="210" y="220" font-size="14" font-weight="600" fill="#53B1FD">✦ Generated Analytics</text>

  <!-- Dark Chart Cards -->
  <rect x="210" y="234" width="260" height="130" rx="12" fill="#293056" stroke="#363F72" stroke-width="1"/>
  <text x="230" y="258" font-size="12" fill="#98A2B3">Conversation Volume</text>
  <text x="430" y="258" font-size="11" fill="#32D583" text-anchor="end">↗ 12.5%</text>
  <text x="230" y="286" font-size="28" font-weight="700" fill="#F9FAFB">2,543</text>
  <polyline points="230,350 260,335 300,340 340,325 380,330 420,315 450,305" fill="none" stroke="#53B1FD" stroke-width="2"/>

  <rect x="490" y="234" width="260" height="130" rx="12" fill="#293056" stroke="#363F72" stroke-width="1"/>
  <text x="510" y="258" font-size="12" fill="#98A2B3">Response Quality</text>
  <text x="710" y="258" font-size="11" fill="#32D583" text-anchor="end">↗ 5.2%</text>
  <text x="510" y="286" font-size="28" font-weight="700" fill="#F9FAFB">94%</text>
  <path d="M510,350 Q560,320 610,335 Q660,350 710,310" fill="rgba(83,177,253,0.15)" stroke="#53B1FD" stroke-width="2"/>

  <!-- Tool Calls -->
  <text x="210" y="390" font-size="13" font-weight="600" fill="#D0D5DD">⟐ Tool Calls</text>
  <rect x="210" y="400" width="540" height="30" rx="8" fill="rgba(18,183,106,0.12)" stroke="#054F31" stroke-width="1"/>
  <text x="250" y="420" font-size="12" fill="#6CE9A6">search_database</text>
  <text x="730" y="420" font-size="14" fill="#32D583" text-anchor="end">✓</text>
  <rect x="210" y="436" width="540" height="30" rx="8" fill="rgba(247,144,9,0.12)" stroke="#93370D" stroke-width="1"/>
  <text x="250" y="456" font-size="12" fill="#FEDF89">execute_code</text>
  <text x="730" y="456" font-size="14" fill="#FDB022" text-anchor="end">↻</text>
  <rect x="210" y="472" width="540" height="30" rx="8" fill="rgba(240,68,56,0.12)" stroke="#7A271A" stroke-width="1"/>
  <text x="250" y="492" font-size="12" fill="#FDA29B">api_request</text>
  <text x="730" y="492" font-size="14" fill="#F97066" text-anchor="end">✕</text>
</svg>