<svg xmlns="http://www.w3.org/2000/svg" viewBox="0 0 880 520" font-family="Inter, system-ui, sans-serif">
  <rect width="880" height="520" fill="#FCFCFD"/>
  <text x="32" y="40" font-size="22" font-weight="700" fill="#101828">Primary Colors</text>
  <text x="32" y="62" font-size="13" fill="#667085">Brand, Gray, Error, Warning, and Success — the core palettes used across all Habibi components</text>
  
  <!-- Brand -->
  <text x="32" y="100" font-size="11" font-weight="600" fill="#6941C6" letter-spacing="0.08em">BRAND (PRIMARY INTERACTIVE)</text>
  
  <rect x="32" y="112" width="70" height="36" rx="6" fill="#FCFAFF" stroke="#E4E7EC" stroke-width="0.5"/>
  <text x="67" y="160" font-size="10" fill="#667085" text-anchor="middle">25</text>
  <text x="67" y="172" font-size="8" fill="#98A2B3" text-anchor="middle">#FCFAFF</text>
  <rect x="108" y="112" width="70" height="36" rx="6" fill="#F9F5FF" stroke="#E4E7EC" stroke-width="0.5"/>
  <text x="143" y="160" font-size="10" fill="#667085" text-anchor="middle">50</text>
  <text x="143" y="172" font-size="8" fill="#98A2B3" text-anchor="middle">#F9F5FF</text>
  <rect x="184" y="112" width="70" height="36" rx="6" fill="#F4EBFF" stroke="#E4E7EC" stroke-width="0.5"/>
  <text x="219" y="160" font-size="10" fill="#667085" text-anchor="middle">100</text>
  <text x="219" y="172" font-size="8" fill="#98A2B3" text-anchor="middle">#F4EBFF</text>
  <rect x="260" y="112" width="70" height="36" rx="6" fill="#E9D7FE" stroke="#E4E7EC" stroke-width="0.5"/>
  <text x="295" y="160" font-size="10" fill="#667085" text-anchor="middle">200</text>
  <text x="295" y="172" font-size="8" fill="#98A2B3" text-anchor="middle">#E9D7FE</text>
  <rect x="336" y="112" width="70" height="36" rx="6" fill="#D6BBFB" stroke="#E4E7EC" stroke-width="0.5"/>
  <text x="371" y="160" font-size="10" fill="#667085" text-anchor="middle">300</text>
  <text x="371" y="172" font-size="8" fill="#98A2B3" text-anchor="middle">#D6BBFB</text>
  <rect x="412" y="112" width="70" height="36" rx="6" fill="#B692F6" stroke="#E4E7EC" stroke-width="0.5"/>
  <text x="447" y="160" font-size="10" fill="#667085" text-anchor="middle">400</text>
  <text x="447" y="172" font-size="8" fill="#98A2B3" text-anchor="middle">#B692F6</text>
  <rect x="488" y="112" width="70" height="36" rx="6" fill="#9E77ED" stroke="#E4E7EC" stroke-width="0.5"/>
  <text x="523" y="160" font-size="10" fill="#667085" text-anchor="middle">500</text>
  <text x="523" y="172" font-size="8" fill="#98A2B3" text-anchor="middle">#9E77ED</text>
  <rect x="564" y="112" width="70" height="36" rx="6" fill="#6941C6" stroke="#E4E7EC" stroke-width="0.5"/>
  <text x="599" y="160" font-size="10" fill="#667085" text-anchor="middle">600</text>
  <text x="599" y="172" font-size="8" fill="#98A2B3" text-anchor="middle">#6941C6</text>
  <rect x="640" y="112" width="70" height="36" rx="6" fill="#7F56D9" stroke="#E4E7EC" stroke-width="0.5"/>
  <text x="675" y="160" font-size="10" fill="#667085" text-anchor="middle">700</text>
  <text x="675" y="172" font-size="8" fill="#98A2B3" text-anchor="middle">#7F56D9</text>
  <rect x="716" y="112" width="70" height="36" rx="6" fill="#53389E" stroke="#E4E7EC" stroke-width="0.5"/>
  <text x="751" y="160" font-size="10" fill="#667085" text-anchor="middle">800</text>
  <text x="751" y="172" font-size="8" fill="#98A2B3" text-anchor="middle">#53389E</text>
  <rect x="792" y="112" width="70" height="36" rx="6" fill="#42307D" stroke="#E4E7EC" stroke-width="0.5"/>
  <text x="827" y="160" font-size="10" fill="#667085" text-anchor="middle">900</text>
  <text x="827" y="172" font-size="8" fill="#98A2B3" text-anchor="middle">#42307D</text>
  
  <!-- Gray -->
  <text x="32" y="205" font-size="11" font-weight="600" fill="#475467" letter-spacing="0.08em">GRAY (NEUTRAL FOUNDATION)</text>
  
  <rect x="32" y="217" width="70" height="36" rx="6" fill="#FCFCFD" stroke="#E4E7EC" stroke-width="0.5"/>
  <text x="67" y="265" font-size="10" fill="#667085" text-anchor="middle">25</text>
  <text x="67" y="277" font-size="8" fill="#98A2B3" text-anchor="middle">#FCFCFD</text>
  <rect x="108" y="217" width="70" height="36" rx="6" fill="#F9FAFB" stroke="#E4E7EC" stroke-width="0.5"/>
  <text x="143" y="265" font-size="10" fill="#667085" text-anchor="middle">50</text>
  <text x="143" y="277" font-size="8" fill="#98A2B3" text-anchor="middle">#F9FAFB</text>
  <rect x="184" y="217" width="70" height="36" rx="6" fill="#F2F4F7" stroke="#E4E7EC" stroke-width="0.5"/>
  <text x="219" y="265" font-size="10" fill="#667085" text-anchor="middle">100</text>
  <text x="219" y="277" font-size="8" fill="#98A2B3" text-anchor="middle">#F2F4F7</text>
  <rect x="260" y="217" width="70" height="36" rx="6" fill="#E4E7EC" stroke="#E4E7EC" stroke-width="0.5"/>
  <text x="295" y="265" font-size="10" fill="#667085" text-anchor="middle">200</text>
  <text x="295" y="277" font-size="8" fill="#98A2B3" text-anchor="middle">#E4E7EC</text>
  <rect x="336" y="217" width="70" height="36" rx="6" fill="#D0D5DD" stroke="#E4E7EC" stroke-width="0.5"/>
  <text x="371" y="265" font-size="10" fill="#667085" text-anchor="middle">300</text>
  <text x="371" y="277" font-size="8" fill="#98A2B3" text-anchor="middle">#D0D5DD</text>
  <rect x="412" y="217" width="70" height="36" rx="6" fill="#98A2B3" stroke="#E4E7EC" stroke-width="0.5"/>
  <text x="447" y="265" font-size="10" fill="#667085" text-anchor="middle">400</text>
  <text x="447" y="277" font-size="8" fill="#98A2B3" text-anchor="middle">#98A2B3</text>
  <rect x="488" y="217" width="70" height="36" rx="6" fill="#667085" stroke="#E4E7EC" stroke-width="0.5"/>
  <text x="523" y="265" font-size="10" fill="#667085" text-anchor="middle">500</text>
  <text x="523" y="277" font-size="8" fill="#98A2B3" text-anchor="middle">#667085</text>
  <rect x="564" y="217" width="70" height="36" rx="6" fill="#475467" stroke="#E4E7EC" stroke-width="0.5"/>
  <text x="599" y="265" font-size="10" fill="#667085" text-anchor="middle">600</text>
  <text x="599" y="277" font-size="8" fill="#98A2B3" text-anchor="middle">#475467</text>
  <rect x="640" y="217" width="70" height="36" rx="6" fill="#344054" stroke="#E4E7EC" stroke-width="0.5"/>
  <text x="675" y="265" font-size="10" fill="#667085" text-anchor="middle">700</text>
  <text x="675" y="277" font-size="8" fill="#98A2B3" text-anchor="middle">#344054</text>
  <rect x="716" y="217" width="70" height="36" rx="6" fill="#1D2939" stroke="#E4E7EC" stroke-width="0.5"/>
  <text x="751" y="265" font-size="10" fill="#667085" text-anchor="middle">800</text>
  <text x="751" y="277" font-size="8" fill="#98A2B3" text-anchor="middle">#1D2939</text>
  <rect x="792" y="217" width="70" height="36" rx="6" fill="#101828" stroke="#E4E7EC" stroke-width="0.5"/>
  <text x="827" y="265" font-size="10" fill="#667085" text-anchor="middle">900</text>
  <text x="827" y="277" font-size="8" fill="#98A2B3" text-anchor="middle">#101828</text>
  
  <!-- Error -->
  <text x="32" y="310" font-size="11" font-weight="600" fill="#D92D20" letter-spacing="0.08em">ERROR / RED</text>
  
  <rect x="32" y="322" width="70" height="36" rx="6" fill="#FEF3F2" stroke="#E4E7EC" stroke-width="0.5"/>
  <text x="67" y="370" font-size="10" fill="#667085" text-anchor="middle">50</text>
  <text x="67" y="382" font-size="8" fill="#98A2B3" text-anchor="middle">#FEF3F2</text>
  <rect x="108" y="322" width="70" height="36" rx="6" fill="#FEE4E2" stroke="#E4E7EC" stroke-width="0.5"/>
  <text x="143" y="370" font-size="10" fill="#667085" text-anchor="middle">100</text>
  <text x="143" y="382" font-size="8" fill="#98A2B3" text-anchor="middle">#FEE4E2</text>
  <rect x="184" y="322" width="70" height="36" rx="6" fill="#FECDCA" stroke="#E4E7EC" stroke-width="0.5"/>
  <text x="219" y="370" font-size="10" fill="#667085" text-anchor="middle">200</text>
  <text x="219" y="382" font-size="8" fill="#98A2B3" text-anchor="middle">#FECDCA</text>
  <rect x="260" y="322" width="70" height="36" rx="6" fill="#FDA29B" stroke="#E4E7EC" stroke-width="0.5"/>
  <text x="295" y="370" font-size="10" fill="#667085" text-anchor="middle">300</text>
  <text x="295" y="382" font-size="8" fill="#98A2B3" text-anchor="middle">#FDA29B</text>
  <rect x="336" y="322" width="70" height="36" rx="6" fill="#F97066" stroke="#E4E7EC" stroke-width="0.5"/>
  <text x="371" y="370" font-size="10" fill="#667085" text-anchor="middle">400</text>
  <text x="371" y="382" font-size="8" fill="#98A2B3" text-anchor="middle">#F97066</text>
  <rect x="412" y="322" width="70" height="36" rx="6" fill="#F04438" stroke="#E4E7EC" stroke-width="0.5"/>
  <text x="447" y="370" font-size="10" fill="#667085" text-anchor="middle">500</text>
  <text x="447" y="382" font-size="8" fill="#98A2B3" text-anchor="middle">#F04438</text>
  <rect x="488" y="322" width="70" height="36" rx="6" fill="#D92D20" stroke="#E4E7EC" stroke-width="0.5"/>
  <text x="523" y="370" font-size="10" fill="#667085" text-anchor="middle">600</text>
  <text x="523" y="382" font-size="8" fill="#98A2B3" text-anchor="middle">#D92D20</text>
  <rect x="564" y="322" width="70" height="36" rx="6" fill="#B42318" stroke="#E4E7EC" stroke-width="0.5"/>
  <text x="599" y="370" font-size="10" fill="#667085" text-anchor="middle">700</text>
  <text x="599" y="382" font-size="8" fill="#98A2B3" text-anchor="middle">#B42318</text>
  <rect x="640" y="322" width="70" height="36" rx="6" fill="#912018" stroke="#E4E7EC" stroke-width="0.5"/>
  <text x="675" y="370" font-size="10" fill="#667085" text-anchor="middle">800</text>
  <text x="675" y="382" font-size="8" fill="#98A2B3" text-anchor="middle">#912018</text>
  <rect x="716" y="322" width="70" height="36" rx="6" fill="#7A271A" stroke="#E4E7EC" stroke-width="0.5"/>
  <text x="751" y="370" font-size="10" fill="#667085" text-anchor="middle">900</text>
  <text x="751" y="382" font-size="8" fill="#98A2B3" text-anchor="middle">#7A271A</text>
  
  <!-- Warning -->
  <text x="32" y="410" font-size="11" font-weight="600" fill="#DC6803" letter-spacing="0.08em">WARNING / YELLOW</text>
  
  <rect x="32" y="422" width="70" height="36" rx="6" fill="#FFFAEB" stroke="#E4E7EC" stroke-width="0.5"/>
  <text x="67" y="470" font-size="10" fill="#667085" text-anchor="middle">50</text>
  <text x="67" y="482" font-size="8" fill="#98A2B3" text-anchor="middle">#FFFAEB</text>
  <rect x="108" y="422" width="70" height="36" rx="6" fill="#FEF0C7" stroke="#E4E7EC" stroke-width="0.5"/>
  <text x="143" y="470" font-size="10" fill="#667085" text-anchor="middle">100</text>
  <text x="143" y="482" font-size="8" fill="#98A2B3" text-anchor="middle">#FEF0C7</text>
  <rect x="184" y="422" width="70" height="36" rx="6" fill="#FEDF89" stroke="#E4E7EC" stroke-width="0.5"/>
  <text x="219" y="470" font-size="10" fill="#667085" text-anchor="middle">200</text>
  <text x="219" y="482" font-size="8" fill="#98A2B3" text-anchor="middle">#FEDF89</text>
  <rect x="260" y="422" width="70" height="36" rx="6" fill="#FEC84B" stroke="#E4E7EC" stroke-width="0.5"/>
  <text x="295" y="470" font-size="10" fill="#667085" text-anchor="middle">300</text>
  <text x="295" y="482" font-size="8" fill="#98A2B3" text-anchor="middle">#FEC84B</text>
  <rect x="336" y="422" width="70" height="36" rx="6" fill="#FDB022" stroke="#E4E7EC" stroke-width="0.5"/>
  <text x="371" y="470" font-size="10" fill="#667085" text-anchor="middle">400</text>
  <text x="371" y="482" font-size="8" fill="#98A2B3" text-anchor="middle">#FDB022</text>
  <rect x="412" y="422" width="70" height="36" rx="6" fill="#F79009" stroke="#E4E7EC" stroke-width="0.5"/>
  <text x="447" y="470" font-size="10" fill="#667085" text-anchor="middle">500</text>
  <text x="447" y="482" font-size="8" fill="#98A2B3" text-anchor="middle">#F79009</text>
  <rect x="488" y="422" width="70" height="36" rx="6" fill="#DC6803" stroke="#E4E7EC" stroke-width="0.5"/>
  <text x="523" y="470" font-size="10" fill="#667085" text-anchor="middle">600</text>
  <text x="523" y="482" font-size="8" fill="#98A2B3" text-anchor="middle">#DC6803</text>
  <rect x="564" y="422" width="70" height="36" rx="6" fill="#B54708" stroke="#E4E7EC" stroke-width="0.5"/>
  <text x="599" y="470" font-size="10" fill="#667085" text-anchor="middle">700</text>
  <text x="599" y="482" font-size="8" fill="#98A2B3" text-anchor="middle">#B54708</text>
  <rect x="640" y="422" width="70" height="36" rx="6" fill="#93370D" stroke="#E4E7EC" stroke-width="0.5"/>
  <text x="675" y="470" font-size="10" fill="#667085" text-anchor="middle">800</text>
  <text x="675" y="482" font-size="8" fill="#98A2B3" text-anchor="middle">#93370D</text>
  <rect x="716" y="422" width="70" height="36" rx="6" fill="#7A2E0E" stroke="#E4E7EC" stroke-width="0.5"/>
  <text x="751" y="470" font-size="10" fill="#667085" text-anchor="middle">900</text>
  <text x="751" y="482" font-size="8" fill="#98A2B3" text-anchor="middle">#7A2E0E</text>

  <!-- Success mini row -->
  <text x="32" y="510" font-size="11" font-weight="600" fill="#039855" letter-spacing="0.08em">SUCCESS / GREEN</text>
</svg>